<?xml version="1.0" encoding="UTF-8"?><svg id="Layer_2" xmlns="http://www.w3.org/2000/svg" viewBox="0 0 945.29 389.62"><defs><style>.cls-1{fill:#002082;}.cls-1,.cls-2{stroke-width:0px;}.cls-2{fill:#4d4d4d;}</style></defs><g id="Layer_1-2"><path class="cls-2" d="M319.41,381.82h-92.99l-37.92-117.92-38.44,117.92H57.06L2.8,201.67c-12.57-41.72,18.67-83.75,62.24-83.75h21.63s27.53,101.82,27.53,101.82l39.48-101.82h69.09l39.48,101.82,27.53-101.82h109.09l-79.48,263.9Z"/><path class="cls-2" d="M619.68,370.4c-23.89,12.81-50.04,19.22-78.44,19.22-35.32,0-62.17-9.44-80.52-28.31-18.36-18.87-27.53-44.59-27.53-77.15v-80.52h-31.69v-85.72h31.69v-8.76c0-35.9,29.1-65,65-65h46.69v73.77h61.82v85.72h-61.82v66.49c0,9,2.25,15.41,6.75,19.22s11.61,5.72,21.3,5.72c11.43,0,20.78-2.08,28.05-6.23l18.7,81.56Z"/><path class="cls-2" d="M796.45,117.92v85.72h-57.15v178.19h-111.69v-178.19h-32.73v-85.72h32.73v-13.51c0-31.52,10.13-56.8,30.39-75.85,20.26-19.05,46.84-28.57,79.74-28.57,21.13,0,41.73,3.98,61.82,11.95l-21.3,82.08c-4.5-1.39-9.35-2.08-14.54-2.08-7.27,0-13.16,2.08-17.66,6.23-4.51,4.16-6.76,9.52-6.76,16.1v3.64h57.15Z"/><path class="cls-1" d="M927.89,281.82c11.6,11.95,17.4,26.24,17.4,42.86s-5.72,31.69-17.14,43.12c-11.43,11.43-25.98,17.14-43.64,17.14s-32.13-5.72-43.38-17.14c-11.26-11.43-16.89-25.8-16.89-43.12s5.72-30.91,17.15-42.86c11.43-11.95,25.8-17.92,43.12-17.92s31.77,5.98,43.38,17.92Z"/></g></svg>